<?xml version="1.0" standalone="no"?>
<!DOCTYPE svg PUBLIC "-//W3C//DTD SVG 20010904//EN"
 "http://www.w3.org/TR/2001/REC-SVG-20010904/DTD/svg10.dtd">
<svg version="1.0" xmlns="http://www.w3.org/2000/svg"
 width="225.000000pt" height="225.000000pt" viewBox="0 0 225.000000 225.000000"
 preserveAspectRatio="xMidYMid meet">

<g transform="translate(0.000000,225.000000) scale(0.100000,-0.100000)"
fill="#000000" stroke="none">
<path d="M975 2239 c-366 -46 -713 -302 -870 -642 -136 -294 -136 -650 0 -944
103 -224 306 -430 529 -538 373 -181 826 -140 1152 103 570 425 621 1235 108
1722 -248 236 -574 342 -919 299z m185 -429 c20 -11 179 -283 198 -339 30 -88
20 -113 -206 -506 -166 -290 -187 -314 -288 -335 -33 -7 -117 -10 -209 -8
-148 3 -154 4 -180 28 -21 20 -26 32 -22 56 6 33 573 1036 614 1085 26 30 59
37 93 19z m453 -712 c36 -37 227 -372 227 -399 -1 -34 -22 -58 -61 -69 -47
-14 -398 -13 -438 1 -35 12 -51 35 -51 71 0 29 192 364 226 396 14 12 36 22
50 22 14 0 35 -10 47 -22z"/>
</g>
</svg>
