<?xml version="1.0" standalone="no"?>
<!DOCTYPE svg PUBLIC "-//W3C//DTD SVG 20010904//EN"
 "http://www.w3.org/TR/2001/REC-SVG-20010904/DTD/svg10.dtd">
<svg version="1.0" xmlns="http://www.w3.org/2000/svg"
 width="1400.000000pt" height="1235.000000pt" viewBox="200 200 1000.000000 835.000000"
 preserveAspectRatio="xMidYMid meet">

<g transform="translate(0.000000,1235.000000) scale(0.100000,-0.100000)"
fill="#000000" stroke="none">
<path d="M6875 9418 c-84 -43 -106 -74 -310 -433 -279 -490 -512 -900 -645
-1135 -137 -242 -360 -634 -505 -890 -45 -80 -140 -246 -210 -370 -193 -339
-425 -748 -690 -1215 -139 -244 -200 -352 -528 -930 -169 -298 -197 -359 -197
-426 0 -76 18 -125 67 -179 82 -91 11 -85 998 -88 614 -2 893 0 950 8 194 28
383 144 503 308 66 90 108 163 542 932 51 91 148 262 215 380 67 118 191 337
275 485 84 149 208 367 275 485 532 937 518 906 518 1140 0 196 -30 280 -206
586 -86 150 -473 824 -590 1029 -134 234 -176 288 -254 320 -53 22 -159 19
-208 -7z"/>
<path d="M8820 6055 c-95 -30 -136 -85 -360 -470 -73 -126 -235 -403 -358
-615 -124 -212 -239 -410 -257 -440 -17 -30 -66 -115 -109 -188 -121 -207
-141 -255 -140 -333 0 -54 5 -75 31 -120 38 -69 97 -114 166 -129 37 -7 376
-10 1137 -8 976 3 1089 5 1121 19 95 44 165 156 157 253 -7 83 -40 145 -542
1001 -30 50 -92 155 -138 235 -47 80 -118 201 -158 270 -135 231 -223 375
-262 426 -68 91 -187 132 -288 99z"/>
</g>
</svg>
