<?xml version="1.0" standalone="no"?>
<!DOCTYPE svg PUBLIC "-//W3C//DTD SVG 20010904//EN"
 "http://www.w3.org/TR/2001/REC-SVG-20010904/DTD/svg10.dtd">
<svg version="1.0" xmlns="http://www.w3.org/2000/svg"
 width="1768.000000pt" height="2558.000000pt" viewBox="0 0 1768.000000 2558.000000"
 preserveAspectRatio="xMidYMid meet">

<g transform="translate(0.000000,2558.000000) scale(0.100000,-0.100000)"
fill="#000000" stroke="none">
<path d="M7765 25569 c-1059 -29 -2341 -141 -3160 -274 -767 -125 -1433 -321
-1905 -560 -392 -200 -635 -454 -733 -770 -77 -247 -59 -513 49 -728 154 -305
436 -535 894 -727 391 -165 746 -270 1281 -379 1128 -230 2474 -350 4114 -368
1002 -10 1962 33 2935 132 479 49 1095 133 1171 160 192 68 357 265 420 501
30 113 30 275 0 364 -46 133 -99 220 -190 310 -68 68 -104 94 -171 128 -177
87 -322 99 -640 53 -924 -132 -2048 -201 -3290 -201 -1099 0 -1986 46 -2910
151 -454 51 -1193 176 -1247 210 -61 38 -69 132 -15 180 25 23 59 32 243 68
1375 266 3342 371 5269 281 802 -38 1571 -112 2135 -206 395 -65 1102 -212
1230 -255 322 -107 474 -253 564 -544 17 -55 121 -523 232 -1040 155 -725 200
-950 195 -983 -13 -95 -86 -180 -178 -206 -100 -28 -1049 -137 -1663 -190
-1203 -105 -2222 -149 -3495 -149 -1322 0 -2467 52 -3700 169 -921 86 -1528
166 -2435 319 -310 52 -555 88 -645 95 -648 47 -1229 -238 -1583 -775 -158
-241 -227 -446 -342 -1020 -41 -203 -92 -455 -114 -560 -53 -254 -70 -373 -77
-540 -23 -523 219 -1087 614 -1431 210 -183 463 -315 730 -384 157 -40 1036
-184 1607 -264 1560 -218 2823 -329 4530 -398 434 -18 2405 -18 2830 0 1201
49 2061 109 3030 212 302 32 350 31 456 -10 192 -73 329 -268 329 -470 0 -31
-130 -1327 -290 -2881 -159 -1553 -359 -3508 -445 -4344 -85 -836 -219 -2129
-296 -2874 -77 -745 -151 -1506 -164 -1690 -58 -774 -104 -1034 -235 -1306
-179 -371 -497 -640 -921 -779 -320 -105 -975 -213 -1559 -258 -272 -21 -2424
-12 -2995 13 -886 38 -1478 238 -1870 633 -312 315 -481 739 -574 1446 -23
170 -31 246 -706 6735 -255 2459 -469 4499 -475 4535 -32 196 -140 401 -266
507 -133 112 -254 158 -419 157 -137 0 -227 -24 -369 -97 -82 -42 -117 -67
-187 -137 -123 -122 -183 -239 -195 -379 -4 -49 107 -1147 421 -4151 234
-2247 509 -4884 610 -5860 241 -2315 231 -2232 266 -2405 66 -325 203 -655
381 -918 133 -196 371 -441 580 -597 418 -313 939 -524 1558 -630 761 -130
1742 -182 3480 -184 716 -1 892 4 1295 40 902 79 1513 252 2066 584 392 236
742 567 981 928 239 362 393 759 467 1204 12 67 320 3044 686 6613 366 3570
670 6513 676 6542 17 88 66 171 143 248 90 89 147 117 323 156 379 85 642 191
863 347 79 56 231 202 304 291 373 457 490 1049 342 1724 -14 62 -57 274 -96
472 -83 416 -113 545 -170 708 -184 535 -482 873 -920 1045 -30 12 -131 45
-225 72 -284 85 -411 161 -503 302 -90 139 -117 239 -212 808 -199 1189 -243
1428 -296 1621 -131 474 -382 778 -846 1024 -476 251 -1363 487 -2373 629
-1165 164 -2801 244 -4200 205z m-5220 -5933 c144 -23 279 -50 535 -107 354
-79 439 -95 731 -138 2129 -312 4535 -420 6814 -306 1485 75 2930 241 4346
501 453 83 621 84 793 5 199 -91 340 -319 405 -654 48 -248 46 -636 -3 -778
-70 -200 -221 -334 -474 -420 -115 -39 -223 -59 -647 -119 -1725 -244 -3252
-379 -5005 -442 -449 -16 -1963 -16 -2385 0 -1431 55 -2705 162 -4310 363
-498 62 -1313 173 -1422 194 -341 65 -479 226 -500 580 -9 165 42 515 117 800
84 319 215 485 420 532 76 17 452 10 585 -11z"/>
<path d="M1442 18240 c0 -14 2 -19 5 -12 2 6 2 18 0 25 -3 6 -5 1 -5 -13z"/>
</g>
</svg>
