<?xml version="1.0" standalone="no"?>
<!DOCTYPE svg PUBLIC "-//W3C//DTD SVG 20010904//EN"
 "http://www.w3.org/TR/2001/REC-SVG-20010904/DTD/svg10.dtd">
<svg version="1.0" xmlns="http://www.w3.org/2000/svg"
 width="700.000000pt" height="700.000000pt" viewBox="0 0 700.000000 700.000000"
 preserveAspectRatio="xMidYMid meet">

<g transform="translate(0.000000,700.000000) scale(0.100000,-0.100000)"
fill="#000000" stroke="none">
<path d="M1845 5421 c-352 -30 -735 -184 -1020 -410 -92 -73 -238 -219 -307
-306 -64 -81 -128 -172 -128 -182 0 -3 -6 -14 -14 -22 -21 -24 -111 -205 -151
-306 -98 -243 -145 -556 -124 -830 19 -269 78 -484 194 -720 100 -203 186
-324 350 -493 365 -379 849 -582 1380 -582 440 0 845 139 1190 407 140 109
309 287 391 412 16 24 36 54 44 67 106 159 212 412 258 619 66 293 62 614 -12
895 -33 126 -73 245 -95 288 -5 9 -26 53 -47 97 -34 72 -165 283 -196 316 -7
8 -31 37 -52 64 -56 71 -199 211 -280 275 -328 258 -720 401 -1131 413 -88 3
-200 2 -250 -2z"/>
<path d="M4985 5321 c-144 -32 -249 -94 -370 -218 -63 -64 -161 -195 -204
-273 -200 -362 -305 -821 -305 -1335 0 -698 209 -1325 545 -1641 80 -74 152
-120 259 -162 57 -22 80 -25 185 -25 105 0 128 3 186 26 131 51 251 142 362
275 32 38 137 197 137 207 0 4 8 19 18 33 30 44 102 219 144 347 167 517 184
1178 44 1735 -24 93 -41 147 -93 295 -8 22 -38 88 -67 146 -218 439 -532 660
-841 590z"/>
<path d="M6513 5135 c-101 -43 -199 -317 -257 -715 -45 -308 -51 -420 -51
-930 0 -447 3 -514 23 -690 34 -297 51 -395 103 -595 57 -217 143 -355 222
-355 127 0 241 298 307 800 40 309 54 612 46 1011 -16 796 -150 1414 -321
1479 -32 12 -33 12 -72 -5z"/>
</g>
</svg>
