<?xml version="1.0" standalone="no"?>
<!DOCTYPE svg PUBLIC "-//W3C//DTD SVG 20010904//EN"
 "http://www.w3.org/TR/2001/REC-SVG-20010904/DTD/svg10.dtd">
<svg version="1.0" xmlns="http://www.w3.org/2000/svg"
 width="500.000000pt" height="500.000000pt" viewBox="0 0 500.000000 500.000000"
 preserveAspectRatio="xMidYMid meet">

<g transform="translate(0.000000,500.000000) scale(0.100000,-0.100000)"
fill="#000000" stroke="none">

<path d="M312 4703 c-5 -10 -58 -166 -116 -348 l-107 -330 80 -390 81 -390
-22 -15 c-12 -8 -33 -24 -46 -35 l-23 -20 71 -53 c38 -29 70 -56 70 -61 0 -5
-22 -26 -50 -47 -27 -21 -50 -41 -50 -44 0 -3 29 -35 65 -70 59 -58 79 -90 57
-90 -4 0 -23 -12 -41 -27 l-32 -28 96 -112 c53 -62 102 -113 108 -113 26 0
970 280 986 292 43 34 661 560 665 566 3 5 -1042 787 -1745 1305 -35 26 -39
27 -47 10z"/>
<path d="M3785 4059 c-490 -363 -890 -663 -890 -668 0 -7 642 -556 673 -574
14 -10 962 -287 978 -287 7 0 55 51 108 113 107 124 104 108 30 164 l-29 22
73 66 c39 37 72 70 72 74 0 4 -22 24 -50 45 -27 21 -50 42 -50 47 0 4 32 33
70 63 l70 55 -45 32 c-35 25 -45 38 -41 54 2 11 39 188 81 393 l77 372 -112
338 c-62 185 -115 340 -119 344 -3 4 -406 -290 -896 -653z"/>
<path d="M456 4671 c14 -15 1638 -1220 1641 -1217 5 5 -250 692 -260 703 -9 8
-966 370 -1372 519 -15 5 -17 4 -9 -5z"/>
<path d="M3860 4425 c-371 -139 -683 -259 -692 -266 -15 -13 -274 -697 -266
-703 3 -3 1628 1200 1644 1217 4 4 3 7 -2 6 -5 -1 -313 -115 -684 -254z"/>
<path d="M1890 4148 c0 -7 61 -179 135 -382 l135 -369 35 -581 c19 -320 40
-637 45 -705 6 -68 10 -321 10 -562 l0 -439 243 0 244 0 6 202 c4 112 7 314 7
449 0 135 5 304 11 375 5 71 25 386 43 699 l33 570 137 368 c75 202 136 372
136 378 0 5 -232 9 -610 9 -481 0 -610 -3 -610 -12z"/>
<path d="M1785 3067 l-330 -282 -141 -210 c-78 -116 -140 -212 -138 -214 3 -4
1007 -51 1010 -48 1 1 -11 214 -27 472 -15 259 -28 491 -29 518 0 26 -3 47 -7
46 -5 0 -156 -127 -338 -282z"/>
<path d="M2870 3338 c0 -7 -13 -240 -30 -518 -16 -277 -28 -505 -27 -507 5 -4
998 44 1003 50 3 3 -57 99 -134 214 l-140 209 -318 269 c-363 308 -354 301
-354 283z"/>
<path d="M915 2623 l-461 -135 -158 -494 c-88 -272 -157 -496 -155 -498 6 -5
1409 -13 1409 -7 0 2 -97 192 -215 422 -118 229 -215 422 -215 428 0 6 58 98
128 204 150 225 145 217 135 216 -4 0 -215 -61 -468 -136z"/>
<path d="M3616 2748 c5 -8 67 -103 137 -211 l129 -196 -217 -426 c-119 -235
-215 -428 -214 -429 2 -1 322 0 710 3 l705 6 -157 485 c-86 266 -161 490 -165
498 -5 7 -209 71 -454 143 -245 71 -453 132 -464 135 -14 5 -16 3 -10 -8z"/>
<path d="M1277 2224 c50 -54 138 -145 195 -201 l103 -101 185 85 c120 55 189
82 198 76 7 -4 41 -68 75 -141 45 -97 64 -128 69 -115 4 10 24 112 44 226 27
152 34 211 26 216 -6 4 -197 15 -424 24 -227 10 -447 21 -488 24 l-75 6 92
-99z"/>
<path d="M3278 2296 c-245 -12 -450 -24 -454 -29 -4 -4 11 -109 33 -235 l41
-227 68 143 c38 78 74 142 81 142 6 0 67 -25 135 -56 68 -31 151 -69 184 -84
l62 -28 192 199 192 199 -44 -1 c-24 -1 -244 -11 -490 -23z"/>
<path d="M3611 2058 l-164 -168 -5 -163 c-2 -89 -2 -160 1 -157 8 8 338 653
335 655 -2 1 -77 -74 -167 -167z"/>
<path d="M1375 1915 c87 -170 165 -319 173 -330 12 -18 13 -1 9 144 l-6 165
-167 165 -166 166 157 -310z"/>
<path d="M2172 1993 c-12 -70 -22 -132 -22 -137 0 -6 14 11 30 37 26 42 30 56
29 115 -2 126 -13 121 -37 -15z"/>
<path d="M2797 2096 c-4 -9 -7 -49 -7 -87 0 -60 4 -75 30 -117 l31 -47 -6 35
c-31 184 -42 233 -48 216z"/>
<path d="M1783 1978 c-84 -39 -151 -73 -149 -75 5 -5 431 -131 434 -129 3 3
-126 276 -130 275 -2 0 -72 -32 -155 -71z"/>
<path d="M2993 1915 c-36 -75 -64 -137 -62 -139 4 -4 429 121 436 127 2 2 -23
16 -56 31 -32 14 -102 46 -155 71 l-97 45 -66 -135z"/>
<path d="M1595 1698 c3 -95 8 -186 11 -203 4 -25 46 -62 271 -237 l265 -207
34 22 c19 12 34 27 34 32 0 17 -117 616 -121 619 -6 5 -482 146 -492 146 -4 0
-5 -78 -2 -172z"/>
<path d="M2781 1588 l1 -283 44 215 43 215 -40 68 c-22 37 -42 67 -44 67 -3 0
-5 -127 -4 -282z"/>
<path d="M3145 1797 l-240 -72 -61 -313 -61 -313 35 -24 35 -24 86 67 c48 37
168 130 268 207 l181 140 6 50 c3 28 8 119 11 203 4 119 3 152 -7 151 -7 0
-121 -33 -253 -72z"/>
<path d="M2165 1798 l-37 -63 40 -200 40 -200 1 263 c0 144 -1 262 -3 262 -2
0 -20 -28 -41 -62z"/>
<path d="M133 1443 c3 -5 69 -228 147 -498 78 -269 145 -493 149 -497 6 -7
1019 267 1030 278 2 2 -103 166 -235 364 l-239 359 -428 1 c-236 0 -426 -3
-424 -7z"/>
<path d="M1045 1424 c129 -198 430 -644 434 -644 10 0 85 649 77 657 -4 5
-125 10 -269 12 l-261 3 19 -28z"/>
<path d="M3475 1441 l-41 -6 37 -310 c20 -171 38 -321 40 -334 3 -19 53 49
232 318 l227 341 -227 -2 c-126 0 -246 -4 -268 -7z"/>
<path d="M3773 1087 c-134 -199 -240 -363 -235 -364 106 -35 1029 -280 1033
-275 4 4 69 218 144 477 76 259 141 482 146 498 l8 27 -427 0 -427 -1 -242
-362z"/>
<path d="M1600 1416 c0 -3 -18 -152 -40 -332 -22 -180 -39 -329 -36 -331 2 -2
133 59 292 137 245 120 286 142 273 154 -28 27 -477 376 -483 376 -3 0 -6 -2
-6 -4z"/>
<path d="M3137 1225 l-248 -194 123 -60 c68 -32 199 -95 292 -140 92 -45 169
-81 171 -79 1 2 -15 145 -36 318 -21 173 -38 323 -38 333 -1 9 -4 17 -8 17 -5
-1 -120 -88 -256 -195z"/>
<path d="M2204 1048 c-16 -12 -32 -24 -37 -28 -6 -5 -46 -300 -47 -345 0 -6
133 -10 381 -10 l380 0 -5 30 c-2 17 -12 95 -22 175 l-17 146 -37 27 -38 27
-265 0 c-256 0 -265 -1 -293 -22z"/>
<path d="M1880 880 c-124 -60 -251 -122 -284 -138 l-58 -28 263 -124 c145 -68
267 -125 272 -128 4 -2 7 41 6 95 0 83 13 234 36 396 3 20 2 37 -2 37 -5 0
-109 -50 -233 -110z"/>
<path d="M2880 978 c0 -8 7 -66 16 -129 9 -63 19 -175 22 -250 l7 -136 255
119 c140 66 258 123 263 127 4 4 -115 67 -265 140 -321 157 -298 147 -298 129z"/>
<path d="M2127 612 c-13 -14 -17 -38 -17 -90 l0 -72 384 0 383 0 6 72 c10 116
37 108 -383 108 -333 0 -358 -1 -373 -18z"/>
<path d="M1680 589 c52 -45 411 -291 417 -286 3 3 0 30 -7 60 l-11 54 -107 51
c-59 28 -156 74 -217 101 -103 48 -108 49 -75 20z"/>
<path d="M3138 522 c-114 -54 -211 -102 -215 -106 -13 -13 -31 -126 -19 -119
97 58 462 322 446 322 -3 0 -98 -44 -212 -97z"/>
<path d="M2120 403 c1 -5 6 -35 13 -68 l13 -60 352 -3 352 -2 5 22 c3 13 9 44
14 71 l8 47 -378 0 c-209 0 -379 -3 -379 -7z"/>
</g>
</svg>
